HIERARCHY
ROOT ui
{
	 OFFSET 0 0 0
	 CHANNELS 3 XPosition YPosition Z Position
	 EndSite
	 {
	 OFFSET 0 -1 0
	 }
}
ROOT li
{
	 OFFSET 0 0 0
	 CHANNELS 3 XPosition YPosition Z Position
	 EndSite
	 {
	 OFFSET 0 -1 0
	 }
}
ROOT ul
{
	 OFFSET 0 0 0
	 CHANNELS 3 XPosition YPosition Z Position
	 EndSite
	 {
	 OFFSET 0 -1 0
	 }
}
ROOT ll
{
	 OFFSET 0 0 0
	 CHANNELS 3 XPosition YPosition Z Position
	 EndSite
	 {
	 OFFSET 0 -1 0
	 }
}
ROOT tt
{
	 OFFSET 0 0 0
	 CHANNELS 3 XPosition YPosition Z Position
	 EndSite
	 {
	 OFFSET 0 -1 0
	 }
}
ROOT tb
{
	 OFFSET 0 0 0
	 CHANNELS 3 XPosition YPosition Z Position
	 EndSite
	 {
	 OFFSET 0 -1 0
	 }
}
ROOT td
{
	 OFFSET 0 0 0
	 CHANNELS 3 XPosition YPosition Z Position
	 EndSite
	 {
	 OFFSET 0 -1 0
	 }
}
ROOT v
{
	 OFFSET 0 0 0
	 CHANNELS 3 XPosition YPosition Z Position
	 EndSite
	 {
	 OFFSET 0 -1 0
	 }
}
ROOT bn
{
	 OFFSET 0 0 0
	 CHANNELS 3 XPosition YPosition Z Position
	 EndSite
	 {
	 OFFSET 0 -1 0
	 }
}
MOTION
Frames: 16
Frame Time: 0.002
-0.0012225430011749267	-1.538739949464798E-4	0		0.4790450439453125	-2.357157958984375	0		-1.0863555908203124	2.4610599875450135E-4	0		-0.7167531127929687	-2.334980712890625	0		1.6923819580078125	-0.7244036254882813	0		3.323325927734375	-0.491525634765625	0		4.66948779296875	-0.36187005615234374	0		5.83371044921875	0.13307865905761718	0		-0.28845565795898437	5.9122119140625	0		
-0.0011853610277175904	-5.059000104665756E-5	0		0.5089858703613281	-2.35556298828125	0		-1.0782069091796875	0.007277162075042725	0		-0.7449644775390625	-2.342387939453125	0		1.701556640625	-0.7135361328125	0		3.33590087890625	-0.5188037719726563	0		4.65425048828125	-0.37773336791992185	0		5.82727734375	0.12778499603271484	0		-0.2729469299316406	5.922087890625	0		
0.0019089490175247192	0.002994865894317627	0		0.4870482482910156	-2.347139892578125	0		-1.0778212890625	0.028421661376953126	0		-0.7002490234375	-2.355981689453125	0		1.7276612548828125	-0.7079459838867187	0		3.371272216796875	-0.4974413146972656	0		4.66832470703125	-0.37505996704101563	0		5.84594970703125	0.14229470825195312	0		-0.2233736572265625	5.93640283203125	0		
0.02391423225402832	-2.758600115776062E-4	0		0.5259631958007812	-2.349707275390625	0		-1.1058245849609376	0.02500804328918457	0		-0.7192944946289063	-2.35555810546875	0		1.69004736328125	-0.68532568359375	0		3.34003564453125	-0.5140021362304688	0		4.660171875	-0.38702008056640624	0		5.8302958984375	0.1426085662841797	0		-0.12201831817626953	5.93786279296875	0		
-0.0010160219669342041	2.0393499732017516E-4	0		0.4699622497558594	-2.347744140625	0		-1.1807310791015626	0.027342472076416015	0		-0.7254320068359374	-2.36235693359375	0		1.730049560546875	-0.6879644775390625	0		3.345935546875	-0.5231524658203125	0		4.667076171875	-0.39621063232421877	0		5.8273818359375	0.12689253997802735	0		-0.2398684997558594	5.9298583984375	0		
-0.004990481853485108	-0.0026657519340515137	0		0.5047756958007813	-2.35926220703125	0		-1.1806563720703125	0.027446023941040038	0		-0.7806721801757812	-2.376372314453125	0		1.6962515869140624	-0.6784048461914063	0		3.333912353515625	-0.52800146484375	0		4.6590078125	-0.4041446533203125	0		5.820263671875	0.12176668548583984	0		-0.2878704528808594	5.91371337890625	0		
-8.648890256881714E-4	3.2288500666618347E-4	0		0.4829071044921875	-2.3518642578125	0		-1.176530029296875	0.03046596145629883	0		-0.7087653198242188	-2.38346875	0		1.702424072265625	-0.67149462890625	0		3.353233642578125	-0.51234765625	0		4.67310546875	-0.4024241943359375	0		5.8288388671875	0.11606517791748047	0		-0.27345843505859374	5.92454541015625	0		
-7.874119877815247E-4	3.657790124416351E-4	0		0.4761172790527344	-2.340718505859375	0		-1.1632742919921875	0.041319248199462894	0		-0.7806286010742187	-2.37623876953125	0		1.702732421875	-0.6564880981445312	0		3.322141845703125	-0.5218659057617188	0		4.665044921875	-0.41033010864257813	0		5.82405029296875	0.13862025451660157	0		-0.10781051635742188	5.95090087890625	0		
-7.128310203552246E-4	3.973430097103119E-4	0		0.48297976684570315	-2.35180615234375	0		-1.1723121337890625	0.03451431274414062	0		-0.7168231201171875	-2.391239013671875	0		1.7168778076171876	-0.6517086791992187	0		3.35318896484375	-0.5233849487304687	0		4.6651142578125	-0.410352294921875	0		5.828943359375	0.11585388946533202	0		-0.2541905212402344	5.91931982421875	0		
-6.438909769058228E-4	4.173479974269867E-4	0		0.5172233276367187	-2.34034619140625	0		-1.1631300048828126	0.04139483261108398	0		-0.7755022583007812	-2.374253173828125	0		1.6971895751953125	-0.63637646484375	0		3.338093017578125	-0.5331426391601563	0		4.6651806640625	-0.4103604736328125	0		5.82481689453125	0.13155418395996094	0		-0.12172171783447265	5.9401845703125	0		
-0.007696368217468262	-0.006459236145019531	0		0.4721888732910156	-2.345603271484375	0		-1.163069091796875	0.041404720306396484	0		-0.7228272094726562	-2.398105712890625	0		1.700314453125	-0.632420166015625	0		3.344184814453125	-0.5312373657226562	0		4.6720927734375	-0.419470947265625	0		5.8218681640625	0.1109098358154297	0		-0.27390963745117186	5.92567578125	0		
-5.321509838104248E-4	4.221499860286713E-4	0		0.4851800842285156	-2.34981689453125	0		-1.2349434814453124	0.046572067260742187	0		-0.7936288452148438	-2.388953857421875	0		1.7095618896484375	-0.6205667724609375	0		3.34487841796875	-0.5532437744140625	0		4.6639990234375	-0.42833026123046875	0		5.8267568359375	0.08998039245605469	0		-0.2728936462402344	5.92465576171875	0		
0.0025562610626220705	0.0033583290576934812	0		0.5064117736816406	-2.33917236328125	0		-1.1589139404296875	0.04530989837646485	0		-0.72068115234375	-2.396163330078125	0		1.706769287109375	-0.6105225830078125	0		3.37134228515625	-0.5276641845703125	0		4.6811376953125	-0.42259725952148436	0		5.834126953125	0.12087399291992187	0		-0.22363754272460937	5.939837890625	0		
-4.6410998702049256E-4	3.8287198543548583E-4	0		0.46656353759765623	-2.332541259765625	0		-1.15888623046875	0.04527497482299805	0		-0.7246967163085938	-2.400128662109375	0		1.7068028564453126	-0.610532470703125	0		3.327185302734375	-0.5389405517578125	0		4.67807177734375	-0.4285375061035156	0		5.8268076171875	0.09006552124023437	0		-0.24078948974609374	5.93208935546875	0		
-4.4839298725128174E-4	3.4825199842453E-4	0		0.5174819946289062	-2.340401123046875	0		-1.1588709716796874	0.04522865676879883	0		-0.73077001953125	-2.407072021484375	0		1.7239853515625	-0.600828125	0		3.349056884765625	-0.548298828125	0		4.6698974609375	-0.4404000244140625	0		5.83049072265625	0.10553431701660156	0		-0.25501103210449216	5.92128173828125	0		
-0.004494192123413086	-0.0026304240226745607	0		0.4645977783203125	-2.33457763671875	0		-1.2348587646484375	0.04640964126586914	0		-0.764656005859375	-2.401571044921875	0		1.7098984375	-0.6066253051757813	0		3.336985595703125	-0.5531114501953125	0		4.6798544921875	-0.44356451416015624	0		5.81969140625	0.09041938781738282	0		-0.2901318359375	5.91780517578125	0		
